<?xml version="1.0" encoding="UTF-8"?>
<svg width="300px" height="66px" viewBox="0 0 300 66" version="1.1" xmlns="http://www.w3.org/2000/svg" xmlns:xlink="http://www.w3.org/1999/xlink">
    <title>Artboard</title>
    <g id="Artboard" stroke="none" stroke-width="1" fill="none" fill-rule="evenodd">
        <g id="tj-logo-horizontal" transform="translate(0.000000, 12.000000)" fill="#00424A" fill-rule="nonzero">
            <g id="Group" transform="translate(49.775433, 0.000000)">
                <g transform="translate(0.000000, 0.048503)">
                    <path d="M116.551586,8.77895844 C114.9025,7.22687739 112.768389,6.45083686 110.440267,6.45083686 C107.384608,6.45083686 104.377451,8.24543058 103.164887,10.7675623 C102.097832,8.48794324 99.9152176,6.45083686 95.8895074,6.45083686 C92.5913351,6.45083686 90.3602186,8.43944071 89.7296857,9.70050656 L89.6811832,9.70050656 L89.6811832,7.22687739 L83.5213615,7.22687739 L83.5213615,32.3996919 L89.8751933,32.3996919 L89.8751933,17.9944397 C89.8751933,15.2297953 90.8937465,12.4166484 94.2404212,12.4166484 C97.3930859,12.4166484 98.314634,14.9872826 98.314634,17.4124093 L98.314634,32.3511894 L104.765471,32.3511894 L104.765471,17.6549219 C104.765471,14.0657345 106.996587,12.4166484 109.033694,12.4166484 C111.652831,12.4166484 113.156409,14.2597446 113.156409,17.4609118 L113.156409,32.3996919 L119.558743,32.3996919 L119.558743,16.6848713 C119.558743,12.6106585 118.103667,10.1855319 116.551586,8.77895844 Z" id="Path"></path>
                    <path d="M78.4285955,8.77895844 C76.7795094,7.22687739 74.645398,6.45083686 72.3172764,6.45083686 C69.2616168,6.45083686 66.2544598,8.24543058 65.0418965,10.7675623 C63.9748408,8.48794324 61.7922268,6.45083686 57.7665166,6.45083686 C54.4683443,6.45083686 52.2372278,8.43944071 51.6066949,9.70050656 L51.5581924,9.70050656 L51.5581924,7.22687739 L45.3983707,7.22687739 L45.3983707,32.3996919 L51.7522025,32.3996919 L51.7522025,17.9944397 C51.7522025,15.2297953 52.7707557,12.4166484 56.1174305,12.4166484 C59.2700951,12.4166484 60.1916432,14.9872826 60.1916432,17.4124093 L60.1916432,32.3511894 L66.6424801,32.3511894 L66.6424801,17.6549219 C66.6424801,14.0657345 68.8735966,12.4166484 70.910703,12.4166484 C73.5298397,12.4166484 75.0334182,14.2597446 75.0334182,17.4609118 L75.0334182,32.3996919 L81.4357526,32.3996919 L81.4357526,16.6848713 C81.4357526,12.6106585 79.9321741,10.1855319 78.4285955,8.77895844 Z" id="Path"></path>
                    <polygon id="Path" points="22.6506828 -3.44631223e-15 1.37852489e-14 -3.44631223e-15 1.37852489e-14 6.11131913 7.85741031 6.11131913 7.85741031 32.3511894 14.74477 32.3511894 14.74477 6.11131913 22.6506828 6.11131913"></polygon>
                    <polygon id="Path" points="132.266407 23.6207335 126.20359 7.22687739 119.122221 7.22687739 128.628717 32.0116716 128.725722 32.3511894 125.282042 41.8576858 131.926889 41.8576858 144.634553 7.22687739 137.892701 7.22687739"></polygon>
                    <path d="M161.852952,-3.44631223e-15 L161.852952,21.0986018 C161.852952,24.3482715 161.076911,26.3853778 158.409272,26.3853778 C156.760186,26.3853778 155.49912,25.6093373 154.092547,24.4452765 L151.958435,30.4595906 C153.510516,31.8176615 156.372166,33.0787274 158.991303,33.0787274 C165.151124,33.0787274 168.643307,28.4709868 168.643307,21.8261398 L168.643307,-3.44631223e-15 L161.852952,-3.44631223e-15 Z" id="Path"></path>
                    <path d="M235.188782,6.45083686 C232.812157,6.45083686 230.047513,7.76040525 228.980457,9.70050656 L228.931955,9.70050656 L228.931955,7.22687739 L222.772133,7.22687739 L222.772133,32.3996919 L229.125965,32.3996919 L229.125965,18.3339574 C229.125965,13.6777143 232.181625,12.4166484 233.830711,12.4166484 C235.576802,12.4166484 238.583959,13.1926889 238.583959,18.3339574 L238.583959,32.3511894 L244.986293,32.3511894 L244.986293,17.2183991 C244.986293,9.79751163 239.893527,6.45083686 235.188782,6.45083686 Z" id="Path"></path>
                    <path d="M210.84051,6.45083686 C208.415383,6.45083686 205.893252,7.80890778 204.826196,9.60350149 L204.729191,9.60350149 L204.729191,-3.44631223e-15 L198.423862,-3.44631223e-15 L198.423862,32.3511894 L204.777693,32.3511894 L204.777693,18.3339574 C204.777693,13.6777143 207.833353,12.4166484 209.482439,12.4166484 C211.22853,12.4166484 214.235687,13.1926889 214.235687,18.3339574 L214.235687,32.3511894 L220.686524,32.3511894 L220.686524,17.2183991 C220.638022,9.79751163 215.545256,6.45083686 210.84051,6.45083686 Z" id="Path"></path>
                    <path d="M183.630589,6.45083686 C176.355209,6.45083686 170.486403,12.4166484 170.486403,19.7405309 C170.486403,27.0644133 176.355209,33.0302248 183.630589,33.0302248 C190.905969,33.0302248 196.774776,27.0644133 196.774776,19.7405309 C196.774776,12.4166484 190.905969,6.45083686 183.630589,6.45083686 Z M183.630589,26.9674082 C179.750387,26.9674082 176.597722,23.7662411 176.597722,19.7890334 C176.597722,15.8118257 179.750387,12.6106585 183.630589,12.6106585 C187.510792,12.6106585 190.663456,15.8118257 190.663456,19.7890334 C190.663456,23.7662411 187.510792,26.9674082 183.630589,26.9674082 Z" id="Shape"></path>
                    <path d="M30.5565957,6.45083686 C23.2812157,6.45083686 17.4124093,12.4166484 17.4124093,19.7405309 C17.4124093,27.0644133 23.2812157,33.0302248 30.5565957,33.0302248 C37.8319756,33.0302248 43.7007821,27.0644133 43.7007821,19.7405309 C43.7007821,12.4166484 37.8319756,6.45083686 30.5565957,6.45083686 Z M30.5565957,26.9674082 C26.676393,26.9674082 23.5237284,23.7662411 23.5237284,19.7890334 C23.5237284,15.8118257 26.676393,12.6106585 30.5565957,12.6106585 C34.4367983,12.6106585 37.5894629,15.8118257 37.5894629,19.7890334 C37.5894629,23.7662411 34.4367983,26.9674082 30.5565957,26.9674082 Z" id="Shape"></path>
                </g>
                <path d="M246.683882,7.08136979 C244.743781,7.08136979 243.191699,5.48078621 243.191699,3.54068489 C243.191699,1.60058358 244.743781,3.44631223e-15 246.683882,3.44631223e-15 C248.672486,3.44631223e-15 250.224567,1.55208105 250.224567,3.54068489 C250.224567,4.51073555 249.885049,5.38378114 249.206014,6.01431407 C248.526978,6.74185206 247.60543,7.08136979 246.683882,7.08136979 Z M246.683882,0.87304559 C245.180303,0.87304559 243.96774,2.08560891 243.96774,3.58918743 C243.96774,5.04426341 245.180303,6.30532926 246.683882,6.30532926 C248.18746,6.30532926 249.400024,5.14126848 249.400024,3.63768996 C249.400024,2.91015197 249.109008,2.23111651 248.623983,1.74609118 C248.138958,1.16406079 247.459922,0.87304559 246.683882,0.87304559 Z M248.284465,5.23827354 L247.362917,5.23827354 L246.732384,3.92870516 L246.344364,3.92870516 L246.344364,5.23827354 L245.471319,5.23827354 L245.471319,1.84309625 L246.780887,1.84309625 C247.653932,1.84309625 248.235963,2.13411144 248.235963,2.86164944 C248.235963,3.29817223 247.99345,3.63768996 247.60543,3.78319756 L248.284465,5.23827354 Z M246.295862,2.52213171 L246.295862,3.2496697 L246.683882,3.2496697 C247.265912,3.2496697 247.362917,3.15266463 247.362917,2.91015197 C247.362917,2.6676393 247.265912,2.52213171 246.683882,2.52213171 L246.295862,2.52213171 Z" id="Shape"></path>
            </g>
            <g id="Group" transform="translate(0.000000, 0.048503)">
                <polygon id="Rectangle" transform="translate(19.554863, 24.265041) rotate(-90.000000) translate(-19.554863, -24.265041) " points="11.4549402 20.3605872 27.6547861 20.3605872 27.6547861 28.169495 11.4549402 28.169495"></polygon>
                <rect id="Rectangle" x="0.011834618" y="0" width="23.4752259" height="8.09992298"></rect>
                <polygon id="Rectangle" transform="translate(3.904454, 24.280950) rotate(-90.000000) translate(-3.904454, -24.280950) " points="-4.19546909 20.3764961 12.0043769 20.3764961 12.0043769 28.1854038 -4.19546909 28.1854038"></polygon>
            </g>
        </g>
    </g>
</svg>